<svg xmlns="http://www.w3.org/2000/svg" width="48" height="49" fill="none"><path fill="#48F" d="M41.212 17.712c3.2 3.2 4.8 4.8 4.8 6.788s-1.6 3.588-4.8 6.788L36 36.5l-12-12 12-12z"/><path fill="#7AF" d="m36 12.5-12 12-12-12 5.212-5.212c3.2-3.2 4.8-4.8 6.788-4.8s3.588 1.6 6.788 4.8z"/><path fill="#06F" d="m36 36.5-6.343 6.343c-2.667 2.667-4 4-5.657 4s-2.99-1.333-5.657-4L12 36.5l12-12z"/><path fill="#48F" d="m24 24.5-12 12-5.212-5.212c-3.2-3.2-4.8-4.8-4.8-6.788s1.6-3.588 4.8-6.788L12 12.5z"/></svg>