<svg width="148" height="24" viewBox="0 0 148 24" fill="none" xmlns="http://www.w3.org/2000/svg">
<path fill-rule="evenodd" clip-rule="evenodd" d="M0 1.89309V21.6621H6.8781C8.20098 21.6621 9.40767 21.4164 10.4982 20.925C11.5976 20.4335 12.545 19.7455 13.3406 18.861C14.1361 17.9674 14.7484 16.9176 15.1774 15.7113C15.6065 14.4961 15.821 13.1737 15.821 11.7441C15.821 10.3055 15.6065 8.98762 15.1774 7.79031C14.7484 6.58406 14.1361 5.54311 13.3406 4.66746C12.545 3.78288 11.5976 3.09934 10.4982 2.61684C9.40767 2.13434 8.20098 1.89309 6.8781 1.89309H0ZM4.79992 18.0434H6.23454C7.1105 18.0434 7.90155 17.7887 8.60768 17.2794C9.32275 16.7701 9.89481 16.0464 10.3239 15.1082C10.7529 14.1611 10.9674 13.0397 10.9674 11.7441C10.9674 10.4396 10.7529 9.32269 10.3239 8.39343C9.89481 7.46417 9.32275 6.75383 8.60768 6.26239C7.90155 5.76203 7.1105 5.51184 6.23454 5.51184H4.79992V18.0434Z" fill="#0D1723"/>
<path d="M18.0479 7.42843V21.6621H22.7808V7.42843H18.0479Z" fill="#0D1723"/>
<path fill-rule="evenodd" clip-rule="evenodd" d="M30.2381 21.9704C29.2102 21.9704 28.294 21.8096 27.4896 21.4879C26.6851 21.1573 26.0505 20.6793 25.5857 20.0538C25.1209 19.4283 24.8885 18.6688 24.8885 17.7753C24.8885 16.7478 25.179 15.9168 25.76 15.2824C26.341 14.6391 27.0963 14.1521 28.0259 13.8215C28.9555 13.482 29.9387 13.2631 30.9755 13.1648C32.4772 13.0218 33.5006 12.8967 34.0459 12.7895C34.6001 12.6734 34.8772 12.4768 34.8772 12.1998V12.173C34.8772 11.7441 34.6492 11.3956 34.1934 11.1276C33.7464 10.8595 33.1297 10.7255 32.3431 10.7255C31.5118 10.7255 30.8817 10.8774 30.4526 11.1812C30.0325 11.476 29.8225 11.9273 29.8225 12.5349H25.103C25.103 11.3644 25.4248 10.3815 26.0684 9.58627C26.7209 8.78211 27.5968 8.17452 28.6963 7.7635C29.7957 7.35248 31.0247 7.14698 32.3833 7.14698C33.6705 7.14698 34.8638 7.33908 35.9632 7.72329C37.0715 8.10751 37.9654 8.69276 38.6447 9.47905C39.3329 10.2653 39.6771 11.2661 39.6771 12.4813V18.3248C39.6771 18.4509 39.6751 18.576 39.6731 18.7001C39.6691 18.9453 39.6652 19.1866 39.6771 19.4239V21.6621H34.9576V20.3512C34.8685 20.4333 34.7747 20.5129 34.676 20.5899C34.1129 21.0367 33.447 21.3807 32.6783 21.6219C31.9096 21.8542 31.0962 21.9704 30.2381 21.9704ZM31.6057 18.4991C32.1599 18.4991 32.6917 18.3874 33.2012 18.164C33.7107 17.9406 34.1308 17.5832 34.4615 17.0918C34.7298 16.6932 34.8892 16.1859 34.9399 15.5699C34.6883 15.6301 34.426 15.6862 34.1531 15.7381C33.4023 15.8721 32.6694 15.9749 31.9543 16.0464C31.1945 16.1268 30.6269 16.2564 30.2515 16.4351C29.8761 16.6138 29.6884 16.9086 29.6884 17.3196C29.6884 17.7128 29.8493 18.0076 30.1711 18.2042C30.5018 18.4008 30.98 18.4991 31.6057 18.4991Z" fill="#0D1723"/>
<path d="M50.831 21.6621H55.5773V14.4381C55.5773 13.9913 55.622 13.5669 55.7114 13.1648C55.8008 12.7627 55.9348 12.4142 56.1136 12.1194C56.2924 11.8156 56.5203 11.5788 56.7974 11.409C57.0834 11.2393 57.4186 11.1544 57.803 11.1544C58.2231 11.1544 58.5583 11.2303 58.8085 11.3822C59.0678 11.5341 59.2599 11.7486 59.3851 12.0256C59.5102 12.2936 59.5951 12.6063 59.6398 12.9637C59.6845 13.3122 59.7069 13.6875 59.7069 14.0896V21.6621H64.4934V12.7761C64.4934 11.7575 64.3593 10.8238 64.0911 9.97495C63.823 9.12611 63.3537 8.44257 62.6833 7.92433C62.0219 7.4061 61.0878 7.14698 59.8811 7.14698C58.7549 7.14698 57.7896 7.41056 56.9851 7.93774C56.2129 8.43519 55.6137 9.12199 55.1874 9.99814C54.928 9.14205 54.468 8.45525 53.8075 7.93774C53.1461 7.41056 52.2075 7.14698 50.9919 7.14698C49.8746 7.14698 48.9093 7.41056 48.0959 7.93774C47.5322 8.30089 47.0584 8.76714 46.6747 9.33649V7.42843H41.9016V21.6621H46.6747V14.4783C46.6747 14.0136 46.7194 13.5803 46.8087 13.1782C46.8981 12.7672 47.0367 12.4142 47.2244 12.1194C47.4121 11.8156 47.6445 11.5788 47.9216 11.409C48.2076 11.2393 48.5428 11.1544 48.9271 11.1544C49.3651 11.1544 49.7092 11.2393 49.9595 11.409C50.2187 11.5788 50.4109 11.8066 50.536 12.0926C50.6612 12.3785 50.7416 12.6957 50.7774 13.0442C50.8131 13.3837 50.831 13.7366 50.831 14.103V21.6621Z" fill="#0D1723"/>
<path d="M94.7835 21.6621V14.237C94.7835 13.7009 94.7209 13.2005 94.5957 12.7359C94.4795 12.2623 94.2471 11.8826 93.8986 11.5967C93.5589 11.3018 93.0405 11.1544 92.3433 11.1544C91.7444 11.1544 91.2394 11.2884 90.8282 11.5565C90.417 11.8156 90.1087 12.1864 89.9031 12.6689C89.6975 13.1514 89.5947 13.7188 89.5947 14.371V21.6621H84.8216V7.42843H89.5947V9.62202C90.0898 8.91504 90.711 8.34914 91.4584 7.92433C92.3701 7.4061 93.3935 7.14698 94.5287 7.14698C95.7175 7.14698 96.6784 7.38823 97.4113 7.87073C98.1532 8.35322 98.694 9.02336 99.0337 9.88113C99.3823 10.7389 99.5565 11.7262 99.5565 12.8431V21.6621H94.7835Z" fill="#0D1723"/>
<path fill-rule="evenodd" clip-rule="evenodd" d="M105.048 21.1528C106.067 21.7157 107.17 21.9972 108.359 21.9972C109.503 21.9972 110.54 21.6845 111.47 21.059C111.911 20.7623 112.309 20.4173 112.663 20.024V21.6621H117.45V1.89309H112.663V9.01383C112.304 8.6372 111.902 8.30977 111.456 8.03156C110.527 7.44184 109.494 7.14698 108.359 7.14698C107.215 7.14698 106.134 7.42843 105.115 7.99135C104.096 8.55426 103.269 9.38076 102.634 10.4708C102 11.5609 101.682 12.8923 101.682 14.4649C101.682 16.1179 101.991 17.5028 102.607 18.6197C103.224 19.7366 104.038 20.581 105.048 21.1528ZM112.663 14.0092V14.9071C112.663 15.5326 112.516 16.0732 112.221 16.5289C111.935 16.9756 111.564 17.3196 111.108 17.5609C110.652 17.8021 110.169 17.9228 109.66 17.9228C108.864 17.9228 108.158 17.6458 107.541 17.0918C106.925 16.5378 106.616 15.6622 106.616 14.4649C106.616 13.2675 106.925 12.4053 107.541 11.8781C108.158 11.342 108.864 11.074 109.66 11.074C110.151 11.074 110.625 11.1901 111.081 11.4224C111.537 11.6458 111.912 11.9764 112.207 12.4142C112.511 12.8431 112.663 13.3748 112.663 14.0092Z" fill="#0D1723"/>
<path d="M142.291 7.43721V21.6709H147.024V7.43721H142.291Z" fill="#0D1723"/>
<path d="M130.258 7.48203V14.9071C130.258 15.4432 130.321 15.9436 130.446 16.4082C130.562 16.8818 130.795 17.2616 131.143 17.5475C131.483 17.8423 132.001 17.9898 132.699 17.9898C133.298 17.9898 133.803 17.8557 134.214 17.5877C134.625 17.3286 134.933 16.9578 135.139 16.4753C135.344 15.9928 135.447 15.4254 135.447 14.7731V7.48203H140.22V21.7157L135.447 21.7157V19.5221C134.952 20.2291 134.331 20.795 133.584 21.2198C132.672 21.7381 131.648 21.9972 130.513 21.9972C129.324 21.9972 128.364 21.7559 127.631 21.2734C126.889 20.7909 126.348 20.1208 126.008 19.263C125.66 18.4053 125.485 17.4179 125.485 16.301V7.48203H130.258Z" fill="#0D1723"/>
<path d="M20.88 0.187452C20.6301 -0.0624839 20.2248 -0.0624839 19.9749 0.187452L17.36 2.80235C17.1101 3.05229 17.1101 3.45752 17.36 3.70745L19.9749 6.32236C20.2248 6.57229 20.6301 6.57229 20.88 6.32235L23.4949 3.70745C23.7448 3.45752 23.7448 3.05229 23.4949 2.80235L20.88 0.187452Z" fill="#0D1723"/>
<path d="M145.065 0.187452C144.815 -0.0624839 144.41 -0.0624839 144.16 0.187452L141.545 2.80235C141.295 3.05229 141.295 3.45752 141.545 3.70745L144.16 6.32236C144.41 6.57229 144.815 6.57229 145.065 6.32235L147.68 3.70745C147.93 3.45752 147.93 3.05229 147.68 2.80235L145.065 0.187452Z" fill="#0D1723"/>
<path d="M67.6753 17.1153C66.3953 15.8353 65.7553 15.1953 65.7553 14.4C65.7553 13.6047 66.3953 12.9647 67.6753 11.6847L69.76 9.60001L74.56 14.4L69.76 19.2L67.6753 17.1153Z" fill="#77AAFF"/>
<path d="M69.7599 19.2L74.5599 14.4L79.3599 19.2L77.2752 21.2847C75.9952 22.5647 75.3552 23.2047 74.5599 23.2047C73.7647 23.2047 73.1247 22.5647 71.8447 21.2847L69.7599 19.2Z" fill="#4488FF"/>
<path d="M69.7599 9.59999L72.2972 7.06274C73.3639 5.99607 73.8972 5.46274 74.5599 5.46274C75.2227 5.46274 75.756 5.99607 76.8227 7.06274L79.3599 9.6L74.5599 14.4L69.7599 9.59999Z" fill="#CCDDFF"/>
<path d="M74.56 14.4L79.36 9.60001L81.4447 11.6847C82.7247 12.9647 83.3647 13.6047 83.3647 14.4C83.3647 15.1953 82.7247 15.8353 81.4447 17.1153L79.36 19.2L74.56 14.4Z" fill="#77AAFF"/>
</svg>
