<svg width="96" height="96" viewBox="0 0 96 96" fill="none" xmlns="http://www.w3.org/2000/svg">
<path d="M16 26.534C16.5594 26.3079 17.232 26.0581 18.0115 25.8061C20.7685 24.915 24.852 24 30 24C35.148 24 39.2315 24.915 41.9885 25.8061C42.768 26.0581 43.4406 26.3079 44 26.534V70.0516C40.5951 68.9941 35.8407 68 30 68C24.1593 68 19.4049 68.9941 16 70.0516L16 26.534ZM48 19.5411C47.0971 19.1408 45.9061 18.6649 44.449 18.1939C41.0185 17.085 36.102 16 30 16C23.898 16 18.9815 17.085 15.551 18.1939C13.8359 18.7483 12.4894 19.3095 11.5476 19.7462C11.0764 19.9647 10.7058 20.1525 10.4401 20.2932C10.3072 20.3635 10.2005 20.4222 10.1204 20.4671L10.0204 20.524L9.98553 20.5443L9.97189 20.5523L9.96602 20.5557C9.95816 20.5604 8.98041 21.1398 9.96079 20.5588C8.74533 21.2791 8 22.5872 8 24L8 76C8 77.4372 8.77101 78.7639 10.0197 79.4754C11.2676 80.1865 12.8008 80.1739 14.0368 79.4426C14.0259 79.4487 14.0191 79.453 14.0191 79.453L14.0243 79.4499L14.0306 79.4463L14.0368 79.4426C14.0612 79.4289 14.1103 79.4021 14.1839 79.3631C14.3313 79.285 14.5759 79.1603 14.9134 79.0038C15.5887 78.6905 16.6329 78.2517 18.0115 77.8061C20.7685 76.915 24.852 76 30 76C35.148 76 39.2315 76.915 41.9885 77.8061C43.3671 78.2517 44.4113 78.6905 45.0866 79.0038C45.4241 79.1603 45.6687 79.285 45.8161 79.3631C45.8897 79.4021 45.939 79.4294 45.9633 79.443C45.9743 79.4492 45.9809 79.453 45.9809 79.453M45.9809 79.453L45.9757 79.4499L45.9694 79.4463L45.9633 79.443C47.2191 80.1848 48.7814 80.1853 50.0368 79.4426C50.0612 79.4289 50.1103 79.4021 50.1839 79.3631C50.3313 79.285 50.5759 79.1603 50.9134 79.0038C51.5887 78.6905 52.6329 78.2517 54.0115 77.8061C56.7685 76.915 60.852 76 66 76C71.148 76 75.2315 76.915 77.9885 77.8061C79.3671 78.2517 80.4113 78.6905 81.0866 79.0038C81.4241 79.1603 81.6687 79.285 81.8161 79.3631C81.8897 79.4021 81.939 79.4294 81.9633 79.443L81.9676 79.4452C83.2028 80.1739 84.7339 80.1856 85.9803 79.4754C87.229 78.7639 88 77.4372 88 76V24C88 22.5872 87.2547 21.2791 86.0392 20.5588L86.034 20.5557L86.0281 20.5523L86.0145 20.5443L85.9796 20.524L85.8796 20.4671C85.7995 20.4222 85.6928 20.3635 85.5599 20.2932C85.2942 20.1525 84.9236 19.9647 84.4524 19.7462C83.5106 19.3095 82.1641 18.7483 80.449 18.1939C77.0185 17.085 72.102 16 66 16C59.898 16 54.9815 17.085 51.551 18.1939C50.0939 18.6649 48.9029 19.1408 48 19.5411M80 26.534V70.0516C76.5951 68.9941 71.8407 68 66 68C60.1593 68 55.4049 68.9941 52 70.0516V26.534C52.5594 26.3079 53.232 26.0581 54.0115 25.8061C56.7685 24.915 60.852 24 66 24C71.148 24 75.2315 24.915 77.9885 25.8061C78.768 26.0581 79.4406 26.3079 80 26.534ZM81.9633 27.443C81.9742 27.4491 81.9809 27.453 81.9809 27.453L81.9757 27.4499L81.9633 27.443ZM81.9633 79.443L81.9766 79.4505L81.9676 79.4452" fill="currentColor" />
</svg>
