<svg width="21" height="20" viewBox="0 0 21 20" fill="none" xmlns="http://www.w3.org/2000/svg">
<path d="M0.833984 1C0.833984 0.447715 1.2817 0 1.83398 0H19.834C20.3863 0 20.834 0.447715 20.834 1V8C20.834 8.55228 20.3863 9 19.834 9H1.83398C1.2817 9 0.833984 8.55228 0.833984 8V1Z" fill="currentColor"/>
<path d="M11.834 12C11.834 11.4477 12.2817 11 12.834 11H19.834C20.3863 11 20.834 11.4477 20.834 12V19C20.834 19.5523 20.3863 20 19.834 20H12.834C12.2817 20 11.834 19.5523 11.834 19V12Z" fill="currentColor"/>
<path d="M0.833984 12C0.833984 11.4477 1.2817 11 1.83398 11H8.83398C9.38627 11 9.83398 11.4477 9.83398 12V14C9.83398 14.5523 9.38627 15 8.83398 15H1.83398C1.2817 15 0.833984 14.5523 0.833984 14V12Z" fill="currentColor"/>
<path d="M0.833984 17C0.833984 16.4477 1.2817 16 1.83398 16H8.83398C9.38627 16 9.83398 16.4477 9.83398 17V19C9.83398 19.5523 9.38627 20 8.83398 20H1.83398C1.2817 20 0.833984 19.5523 0.833984 19V17Z" fill="currentColor"/>
</svg>
