<svg width="21" height="20" viewBox="0 0 21 20" fill="none" xmlns="http://www.w3.org/2000/svg">
<path fill-rule="evenodd" clip-rule="evenodd" d="M0.833984 1C0.833984 0.447715 1.2817 0 1.83398 0H19.834C20.3863 0 20.834 0.447715 20.834 1V19C20.834 19.5523 20.3863 20 19.834 20H1.83398C1.2817 20 0.833984 19.5523 0.833984 19V1ZM17.3048 13.8054L15.3054 15.8047C15.045 16.0651 14.6229 16.0651 14.3626 15.8047C14.1022 15.5444 14.1022 15.1223 14.3626 14.8619L15.2245 14H13.0105C11.8396 14 10.7546 13.3857 10.1522 12.3817L9.50066 11.2958L8.84913 12.3816C8.24672 13.3857 7.1617 14 5.99082 14H4.83399C4.46581 14 4.16733 13.7015 4.16733 13.3333C4.16733 12.9651 4.46581 12.6667 4.83399 12.6667H5.99082C6.69335 12.6667 7.34436 12.2981 7.70581 11.6957L8.7232 10L7.70581 8.30434C7.34436 7.70193 6.69335 7.33333 5.99082 7.33333H4.83399C4.46581 7.33333 4.16733 7.03486 4.16733 6.66667C4.16733 6.29848 4.46581 6 4.83399 6H5.99082C7.1617 6 8.24672 6.61433 8.84913 7.61835L9.50066 8.70423L10.1522 7.61835C10.7546 6.61433 11.8396 6 13.0105 6L15.2245 6L14.3626 5.13807C14.1022 4.87772 14.1022 4.45561 14.3626 4.19526C14.6229 3.93491 15.0451 3.93491 15.3054 4.19526L17.3048 6.19462C17.4258 6.31532 17.5007 6.48225 17.5007 6.66667L17.5007 6.66867C17.5002 6.83861 17.4351 7.00841 17.3054 7.13807L15.3054 9.13807C15.045 9.39842 14.6229 9.39842 14.3626 9.13807C14.1022 8.87772 14.1022 8.45561 14.3626 8.19526L15.2245 7.33333L13.0105 7.33333C12.308 7.33333 11.657 7.70193 11.2955 8.30434L10.2781 10L11.2955 11.6957C11.657 12.2981 12.308 12.6667 13.0105 12.6667H15.2245L14.3626 11.8047C14.1022 11.5444 14.1022 11.1223 14.3626 10.8619C14.6229 10.6016 15.045 10.6016 15.3054 10.8619L17.3054 12.8619C17.4351 12.9916 17.5002 13.1614 17.5007 13.3313V13.3333C17.5007 13.5178 17.4258 13.6847 17.3048 13.8054Z" fill="currentColor"/>
</svg>
