<svg width="21" height="20" viewBox="0 0 21 20" fill="none" xmlns="http://www.w3.org/2000/svg">
<path fill-rule="evenodd" clip-rule="evenodd" d="M0.833984 6.25V8C0.833984 8.55229 1.2817 9 1.83398 9H3.33398V8H1.83398L1.83398 6.25H0.833984ZM3.33398 0H1.83398C1.2817 0 0.833984 0.447715 0.833984 1V2.75H1.83398V1L3.33398 1V0ZM6.33398 0V1H9.33398V0H6.33398ZM12.334 0V1H15.334V0H12.334ZM18.334 0V1H19.834V2.75H20.834V1C20.834 0.447715 20.3863 0 19.834 0H18.334ZM20.834 6.25H19.834V8H18.334V9H19.834C20.3863 9 20.834 8.55229 20.834 8V6.25ZM15.334 9V8H12.334V9H15.334ZM9.33399 9V8H6.33398V9H9.33399Z" fill="currentColor"/>
<path fill-rule="evenodd" clip-rule="evenodd" d="M11.834 17.25V19C11.834 19.5523 12.2817 20 12.834 20H14.584V19H12.834V17.25H11.834ZM11.834 13.75H12.834V12H14.584V11H12.834C12.2817 11 11.834 11.4477 11.834 12V13.75ZM18.084 11V12H19.834V13.75H20.834V12C20.834 11.4477 20.3863 11 19.834 11H18.084ZM20.834 17.25H19.834V19H18.084V20H19.834C20.3863 20 20.834 19.5523 20.834 19V17.25Z" fill="currentColor"/>
<path fill-rule="evenodd" clip-rule="evenodd" d="M0.833984 17.25V19C0.833984 19.5523 1.2817 20 1.83398 20H3.58398V19H1.83398L1.83398 17.25H0.833984ZM0.833984 13.75H1.83398V12H3.58398V11H1.83398C1.2817 11 0.833984 11.4477 0.833984 12V13.75ZM7.08398 11V12H8.83398V13.75H9.83398V12C9.83398 11.4477 9.38627 11 8.83398 11H7.08398ZM9.83398 17.25H8.83398V19H7.08398V20H8.83398C9.38627 20 9.83398 19.5523 9.83398 19V17.25Z" fill="currentColor"/>
</svg>
