<svg width="21" height="20" viewBox="0 0 21 20" fill="none" xmlns="http://www.w3.org/2000/svg">
<path fill-rule="evenodd" clip-rule="evenodd" d="M3.33398 0H1.83398C1.2817 0 0.833984 0.447716 0.833984 1V2.5H1.83398V1L3.33398 1V0ZM0.833984 17.5V19C0.833984 19.5523 1.2817 20 1.83398 20H3.33398V19H1.83398L1.83398 17.5H0.833984ZM0.833984 14.5H1.83398V11.5H0.833984V14.5ZM0.833984 8.5H1.83398V5.5H0.833984V8.5ZM6.33398 0V1H9.33398V0H6.33398ZM12.334 0V1H15.334V0H12.334ZM18.334 0V1H19.834V2.5H20.834V1C20.834 0.447715 20.3863 0 19.834 0H18.334ZM20.834 5.5H19.834V8.5H20.834V5.5ZM20.834 11.5H19.834V14.5H20.834V11.5ZM20.834 17.5H19.834V19H18.334V20H19.834C20.3863 20 20.834 19.5523 20.834 19V17.5ZM15.334 20V19H12.334V20H15.334ZM9.33399 20V19H6.33398V20H9.33399Z" fill="currentColor"/>
<path d="M12.1715 4.33751C12.3993 4.1097 12.7687 4.10971 12.9965 4.33751L15.3298 6.67084C15.5576 6.89865 15.5576 7.268 15.3298 7.4958L12.9965 9.82913C12.7687 10.0569 12.3993 10.0569 12.1715 9.82913C11.9437 9.60133 11.9437 9.23198 12.1715 9.00418L13.509 7.66666L6.75065 7.66666C6.42848 7.66666 6.16731 7.40549 6.16731 7.08332C6.16731 6.76116 6.42848 6.49999 6.75065 6.49999H13.509L12.1715 5.16247C11.9437 4.93466 11.9437 4.56532 12.1715 4.33751ZM9.49646 10.1708C9.72427 10.3986 9.72427 10.768 9.49646 10.9958L8.15894 12.3333H14.9173C15.2395 12.3333 15.5006 12.5945 15.5006 12.9167C15.5006 13.2388 15.2395 13.5 14.9173 13.5H8.15894L9.49646 14.8375C9.72426 15.0653 9.72426 15.4347 9.49646 15.6625C9.26865 15.8903 8.89931 15.8903 8.6715 15.6625L6.33817 13.3291C6.22877 13.2197 6.16731 13.0714 6.16731 12.9167C6.16731 12.7619 6.22877 12.6136 6.33817 12.5042L8.6715 10.1708C8.89931 9.94304 9.26865 9.94304 9.49646 10.1708Z" fill="currentColor"/>
</svg>
