<svg width="21" height="20" viewBox="0 0 21 20" fill="none" xmlns="http://www.w3.org/2000/svg">
<path fill-rule="evenodd" clip-rule="evenodd" d="M12.834 15.4968C12.834 17.4298 14.401 18.9968 16.334 18.9968C18.267 18.9968 19.834 17.4298 19.834 15.4968C19.834 13.5638 18.267 11.9968 16.334 11.9968C14.401 11.9968 12.834 13.5638 12.834 15.4968ZM16.334 10.9968C13.8488 10.9968 11.834 13.0115 11.834 15.4968C11.834 17.982 13.8488 19.9968 16.334 19.9968C18.8193 19.9968 20.834 17.982 20.834 15.4968C20.834 13.0115 18.8193 10.9968 16.334 10.9968Z" fill="currentColor"/>
<path d="M14.084 15.4968C14.084 14.2541 15.0914 13.2468 16.334 13.2468C17.5767 13.2468 18.584 14.2541 18.584 15.4968C18.584 16.7394 17.5767 17.7468 16.334 17.7468C15.0914 17.7468 14.084 16.7394 14.084 15.4968Z" fill="currentColor"/>
<path fill-rule="evenodd" clip-rule="evenodd" d="M8.83405 12H1.83405V19H8.83405V12ZM1.83405 11C1.28176 11 0.834045 11.4477 0.834045 12V19C0.834045 19.5523 1.28176 20 1.83405 20H8.83405C9.38633 20 9.83405 19.5523 9.83405 19V12C9.83405 11.4477 9.38633 11 8.83405 11H1.83405Z" fill="currentColor"/>
<path d="M7.72051 14.3031L6.92502 13.5076L4.5386 15.8941L3.74313 15.0986L2.94764 15.8941L4.53853 17.4851L7.72051 14.3031Z" fill="currentColor"/>
<path fill-rule="evenodd" clip-rule="evenodd" d="M19.834 1H1.83398V8H19.834V1ZM1.83398 0C1.2817 0 0.833984 0.447715 0.833984 1V8C0.833984 8.55228 1.2817 9 1.83398 9H19.834C20.3863 9 20.834 8.55228 20.834 8V1C20.834 0.447715 20.3863 0 19.834 0H1.83398Z" fill="currentColor"/>
<path fill-rule="evenodd" clip-rule="evenodd" d="M14.5372 5.53155C13.7561 4.7505 13.7561 3.48417 14.5372 2.70313C15.3182 1.92208 16.5845 1.92208 17.3656 2.70313C18.0245 3.36208 18.1276 4.36644 17.6746 5.13339L19.1334 6.59221L18.4263 7.29931L16.9675 5.84052C16.2006 6.29352 15.1962 6.19054 14.5372 5.53155ZM15.2443 4.82445C14.8538 4.43392 14.8538 3.80076 15.2443 3.41023C15.6348 3.01971 16.268 3.01971 16.6585 3.41023C17.049 3.80076 17.049 4.43392 16.6585 4.82445C16.268 5.21497 15.6348 5.21497 15.2443 4.82445Z" fill="currentColor"/>
</svg>
