<svg width="21" height="20" viewBox="0 0 21 20" fill="none" xmlns="http://www.w3.org/2000/svg">
<path d="M7.83401 13H2.83401V14H7.83401V13Z" fill="currentColor"/>
<path d="M2.83401 15H7.83401V16H2.83401V15Z" fill="currentColor"/>
<path d="M5.83401 17H2.83401V18H5.83401V17Z" fill="currentColor"/>
<path fill-rule="evenodd" clip-rule="evenodd" d="M0.834015 12C0.834015 11.4477 1.28173 11 1.83401 11H8.83401C9.3863 11 9.83401 11.4477 9.83401 12V19C9.83401 19.5523 9.3863 20 8.83401 20H1.83401C1.28173 20 0.834015 19.5523 0.834015 19V12ZM1.83401 12H8.83401V19H1.83401V12Z" fill="currentColor"/>
<path fill-rule="evenodd" clip-rule="evenodd" d="M11.834 17.6404V19C11.834 19.5523 12.2817 20 12.834 20H19.834C20.3862 20 20.834 19.5523 20.834 19V12C20.834 11.4477 20.3862 11 19.834 11H12.834C12.2817 11 11.834 11.4477 11.834 12V17.6317L11.8296 17.6361L11.834 17.6404ZM12.834 12H19.834V15.8609L18.6951 14.7221C18.6014 14.6283 18.4742 14.5756 18.3416 14.5756C18.209 14.5756 18.0818 14.6283 17.988 14.7221L15.9873 16.7228L14.7233 15.4516C14.6296 15.3574 14.5023 15.3043 14.3695 15.3041C14.2366 15.3039 14.1091 15.3566 14.0152 15.4506L12.834 16.6318V12ZM12.834 18.046L14.3677 16.5122L15.2802 17.4299L13.7101 19H12.834V18.046ZM15.1243 19H19.834V17.2752L18.3416 15.7827L15.1243 19Z" fill="currentColor"/>
<path fill-rule="evenodd" clip-rule="evenodd" d="M19.834 1H1.83398V8H19.834V1ZM1.83398 0C1.2817 0 0.833984 0.447715 0.833984 1V8C0.833984 8.55229 1.2817 9 1.83398 9H19.834C20.3863 9 20.834 8.55229 20.834 8V1C20.834 0.447715 20.3863 0 19.834 0H1.83398Z" fill="currentColor"/>
<path fill-rule="evenodd" clip-rule="evenodd" d="M9.36216 2.11833C9.68731 1.94431 10.0819 1.96338 10.3887 2.16795L12.6387 3.66795C12.9169 3.85342 13.084 4.16565 13.084 4.5C13.084 4.83436 12.9169 5.14659 12.6387 5.33205L10.3887 6.83205C10.0819 7.03662 9.68731 7.0557 9.36216 6.88168C9.037 6.70766 8.83401 6.3688 8.83401 6V3C8.83401 2.63121 9.037 2.29235 9.36216 2.11833ZM9.83401 3V6L12.084 4.5L9.83401 3Z" fill="currentColor"/>
</svg>
