<svg width="96" height="96" viewBox="0 0 96 96" fill="none" xmlns="http://www.w3.org/2000/svg">
<path d="M16 16C16 11.5817 19.5817 8 24 8L56 8C57.0609 8 58.0783 8.42143 58.8284 9.17157L78.8284 29.1716C79.5786 29.9217 80 30.9391 80 32V80C80 84.4183 76.4183 88 72 88H24C19.5817 88 16 84.4183 16 80L16 16ZM70.3431 32L56 17.6569V32H70.3431ZM48 16L24 16L24 80H72V40H52C49.7909 40 48 38.2091 48 36V16ZM32 52C32 49.7909 33.7909 48 36 48H60C62.2091 48 64 49.7909 64 52C64 54.2091 62.2091 56 60 56H36C33.7909 56 32 54.2091 32 52ZM32 68C32 65.7909 33.7909 64 36 64H60C62.2091 64 64 65.7909 64 68C64 70.2091 62.2091 72 60 72H36C33.7909 72 32 70.2091 32 68Z" fill="currentColor"/>
</svg>
