<svg width="21" height="20" viewBox="0 0 21 20" fill="none" xmlns="http://www.w3.org/2000/svg">
<path d="M10.4293 1.77149C10.681 1.63167 10.987 1.63167 11.2387 1.77149L18.7387 5.93816C19.0032 6.08514 19.1673 6.36399 19.1673 6.66663C19.1673 6.96927 19.0032 7.24812 18.7387 7.39509L11.2387 11.5618C10.987 11.7016 10.681 11.7016 10.4293 11.5618L2.92927 7.39509C2.66472 7.24812 2.50064 6.96927 2.50064 6.66663C2.50064 6.36399 2.66472 6.08514 2.92927 5.93816L10.4293 1.77149ZM5.04991 6.66663L10.834 9.87999L16.618 6.66663L10.834 3.45326L5.04991 6.66663Z" fill="currentColor"/>
<path d="M2.60551 9.59526C2.82902 9.19294 3.33636 9.04798 3.73868 9.2715L10.834 13.2133L17.9293 9.2715C18.3316 9.04798 18.8389 9.19294 19.0624 9.59526C19.2859 9.99758 19.141 10.5049 18.7387 10.7284L11.2387 14.8951C10.987 15.0349 10.681 15.0349 10.4293 14.8951L2.92927 10.7284C2.52695 10.5049 2.382 9.99758 2.60551 9.59526Z" fill="currentColor"/>
<path d="M2.60551 12.9286C2.82902 12.5263 3.33636 12.3813 3.73868 12.6048L10.834 16.5467L17.9293 12.6048C18.3316 12.3813 18.8389 12.5263 19.0624 12.9286C19.2859 13.3309 19.141 13.8382 18.7387 14.0618L11.2387 18.2284C10.987 18.3682 10.681 18.3682 10.4293 18.2284L2.92927 14.0618C2.52695 13.8382 2.382 13.3309 2.60551 12.9286Z" fill="currentColor"/>
</svg>
