<svg width="21" height="20" viewBox="0 0 21 20" fill="none" xmlns="http://www.w3.org/2000/svg">
<path d="M10.8341 3.33335C7.15217 3.33335 4.1674 6.31812 4.1674 10C4.1674 13.6819 7.15217 16.6667 10.8341 16.6667C14.516 16.6667 17.5007 13.6819 17.5007 10C17.5007 6.31812 14.516 3.33335 10.8341 3.33335ZM2.50073 10C2.50073 5.39765 6.23169 1.66669 10.8341 1.66669C15.4364 1.66669 19.1674 5.39765 19.1674 10C19.1674 14.6024 15.4364 18.3334 10.8341 18.3334C6.23169 18.3334 2.50073 14.6024 2.50073 10Z" fill="currentColor"/>
<path d="M10.8341 11.6667C10.3738 11.6667 10.0007 11.2936 10.0007 10.8334L10.0007 5.83335C10.0007 5.37312 10.3738 5.00002 10.8341 5.00002C11.2943 5.00002 11.6674 5.37312 11.6674 5.83335L11.6674 10.8334C11.6674 11.2936 11.2943 11.6667 10.8341 11.6667Z" fill="currentColor"/>
<path d="M9.58407 13.75C9.58407 13.0597 10.1437 12.5 10.8341 12.5C11.5244 12.5 12.0841 13.0597 12.0841 13.75C12.0841 14.4404 11.5244 15 10.8341 15C10.1437 15 9.58407 14.4404 9.58407 13.75Z" fill="currentColor"/>
</svg>
